<svg width="176" height="47" viewBox="0 0 176 47" fill="none" xmlns="http://www.w3.org/2000/svg">
<path d="M39.4159 37.8673C43.6045 37.8673 47 34.4717 47 30.2831C47 26.6851 44.4935 23.6743 41.1319 22.8964C41.0631 15.2834 34.8713 9.13269 27.242 9.13269C22.0041 9.13269 17.4441 12.0321 15.0773 16.3131C14.3571 16.0015 13.5634 15.828 12.7288 15.828C9.72248 15.828 7.2413 18.0698 6.86145 20.9725C2.94953 21.7481 0 25.1981 0 29.3377C0 34.0486 3.81884 37.8673 8.52949 37.8673C9.84163 37.8673 38.517 37.8673 39.4159 37.8673Z" fill="#006DD1"/>
<path d="M63.982 28.768H59.266L58.51 31H55.288L59.86 18.364H63.424L67.996 31H64.738L63.982 28.768ZM63.19 26.392L61.624 21.766L60.076 26.392H63.19ZM80.6915 31H77.6135L72.4655 23.206V31H69.3875V18.364H72.4655L77.6135 26.194V18.364H80.6915V31ZM86.0006 18.364V31H82.9226V18.364H86.0006ZM102.541 18.364V31H99.4632V23.422L96.6372 31H94.1532L91.3092 23.404V31H88.2312V18.364H91.8672L95.4132 27.112L98.9232 18.364H102.541ZM107.833 20.83V23.386H111.955V25.762H107.833V28.534H112.495V31H104.755V18.364H112.495V20.83H107.833ZM113.971 24.664C113.971 23.416 114.241 22.306 114.781 21.334C115.321 20.35 116.071 19.588 117.031 19.048C118.003 18.496 119.101 18.22 120.325 18.22C121.825 18.22 123.109 18.616 124.177 19.408C125.245 20.2 125.959 21.28 126.319 22.648H122.935C122.683 22.12 122.323 21.718 121.855 21.442C121.399 21.166 120.877 21.028 120.289 21.028C119.341 21.028 118.573 21.358 117.985 22.018C117.397 22.678 117.103 23.56 117.103 24.664C117.103 25.768 117.397 26.65 117.985 27.31C118.573 27.97 119.341 28.3 120.289 28.3C120.877 28.3 121.399 28.162 121.855 27.886C122.323 27.61 122.683 27.208 122.935 26.68H126.319C125.959 28.048 125.245 29.128 124.177 29.92C123.109 30.7 121.825 31.09 120.325 31.09C119.101 31.09 118.003 30.82 117.031 30.28C116.071 29.728 115.321 28.966 114.781 27.994C114.241 27.022 113.971 25.912 113.971 24.664ZM131.282 28.624H135.314V31H128.204V18.364H131.282V28.624ZM142.758 31.126C141.57 31.126 140.478 30.85 139.482 30.298C138.498 29.746 137.712 28.978 137.124 27.994C136.548 26.998 136.26 25.882 136.26 24.646C136.26 23.41 136.548 22.3 137.124 21.316C137.712 20.332 138.498 19.564 139.482 19.012C140.478 18.46 141.57 18.184 142.758 18.184C143.946 18.184 145.032 18.46 146.016 19.012C147.012 19.564 147.792 20.332 148.356 21.316C148.932 22.3 149.22 23.41 149.22 24.646C149.22 25.882 148.932 26.998 148.356 27.994C147.78 28.978 147 29.746 146.016 30.298C145.032 30.85 143.946 31.126 142.758 31.126ZM142.758 28.318C143.766 28.318 144.57 27.982 145.17 27.31C145.782 26.638 146.088 25.75 146.088 24.646C146.088 23.53 145.782 22.642 145.17 21.982C144.57 21.31 143.766 20.974 142.758 20.974C141.738 20.974 140.922 21.304 140.31 21.964C139.71 22.624 139.41 23.518 139.41 24.646C139.41 25.762 139.71 26.656 140.31 27.328C140.922 27.988 141.738 28.318 142.758 28.318ZM153.956 18.364V25.924C153.956 26.68 154.142 27.262 154.514 27.67C154.886 28.078 155.432 28.282 156.152 28.282C156.872 28.282 157.424 28.078 157.808 27.67C158.192 27.262 158.384 26.68 158.384 25.924V18.364H161.462V25.906C161.462 27.034 161.222 27.988 160.742 28.768C160.262 29.548 159.614 30.136 158.798 30.532C157.994 30.928 157.094 31.126 156.098 31.126C155.102 31.126 154.208 30.934 153.416 30.55C152.636 30.154 152.018 29.566 151.562 28.786C151.106 27.994 150.878 27.034 150.878 25.906V18.364H153.956ZM168.358 18.364C169.69 18.364 170.854 18.628 171.85 19.156C172.846 19.684 173.614 20.428 174.154 21.388C174.706 22.336 174.982 23.434 174.982 24.682C174.982 25.918 174.706 27.016 174.154 27.976C173.614 28.936 172.84 29.68 171.832 30.208C170.836 30.736 169.678 31 168.358 31H163.624V18.364H168.358ZM168.16 28.336C169.324 28.336 170.23 28.018 170.878 27.382C171.526 26.746 171.85 25.846 171.85 24.682C171.85 23.518 171.526 22.612 170.878 21.964C170.23 21.316 169.324 20.992 168.16 20.992H166.702V28.336H168.16Z" fill="white"/>
</svg>
