<svg width="42" height="42" viewBox="0 0 42 42" fill="none" xmlns="http://www.w3.org/2000/svg">
<path d="M21 40.3734C31.6995 40.3734 40.3733 31.6996 40.3733 21C40.3733 10.3004 31.6995 1.62671 21 1.62671C10.3004 1.62671 1.62665 10.3004 1.62665 21C1.62665 31.6996 10.3004 40.3734 21 40.3734Z" fill="#006DD1"/>
<path d="M21 42C9.42153 42 0 32.5801 0 21C0 9.42153 9.42153 0 21 0C32.5801 0 42 9.42153 42 21C42 32.5801 32.5801 42 21 42ZM21 3.25328C11.2141 3.25328 3.25328 11.2141 3.25328 21C3.25328 30.7859 11.2141 38.7467 21 38.7467C30.7859 38.7467 38.7467 30.7843 38.7467 21C38.7467 11.2141 30.7859 3.25328 21 3.25328Z" fill="#006DD1"/>
<path d="M30.2881 25.5221C29.6537 26.1532 28.629 26.1532 27.9945 25.5221L21.0162 18.5437L14.0379 25.5221C13.3563 26.106 12.3283 26.0263 11.7443 25.3448C11.2222 24.7364 11.2222 23.8369 11.7443 23.2285L19.8775 15.0953C20.512 14.4642 21.5367 14.4642 22.1711 15.0953L30.3044 23.2285C30.9307 23.8678 30.9241 24.8925 30.2881 25.5221Z" fill="white"/>
</svg>
